<?xml version="1.0" standalone="no"?>
<!DOCTYPE svg PUBLIC "-//W3C//DTD SVG 20010904//EN"
 "http://www.w3.org/TR/2001/REC-SVG-20010904/DTD/svg10.dtd">
<svg version="1.0" xmlns="http://www.w3.org/2000/svg"
 width="512.000000pt" height="512.000000pt" viewBox="0 0 512.000000 512.000000"
 preserveAspectRatio="xMidYMid meet">
<metadata>
Created by potrace 1.14, written by Peter Selinger 2001-2017
</metadata>
<g transform="translate(0.000000,512.000000) scale(0.100000,-0.100000)"
fill="#000000" stroke="none">
<path d="M1327 4764 c-1 -1 -39 -5 -84 -8 -77 -7 -93 -9 -140 -20 -10 -2 -40
-9 -67 -15 -26 -7 -88 -27 -137 -46 -382 -148 -640 -465 -716 -880 -24 -130
-23 -452 1 -571 2 -12 7 -39 10 -60 11 -65 44 -197 66 -265 23 -66 110 -270
120 -279 5 -5 22 -35 63 -112 48 -91 289 -443 327 -478 3 -3 25 -30 50 -60 25
-30 47 -57 50 -60 3 -3 18 -21 34 -40 161 -197 487 -529 770 -785 49 -44 94
-85 100 -90 68 -62 395 -336 490 -410 22 -16 62 -48 90 -71 86 -68 203 -154
210 -154 10 0 164 117 301 229 11 9 43 34 70 56 57 45 53 42 195 161 103 87
233 199 319 279 146 133 191 176 346 331 93 94 196 199 229 235 32 35 75 82
95 104 21 22 82 94 137 160 277 334 430 573 569 890 41 94 100 326 119 470 25
189 24 404 -5 545 -5 30 -13 66 -15 80 -32 162 -152 384 -275 511 -90 94 -258
209 -359 247 -203 77 -343 104 -535 104 -439 -2 -806 -226 -1075 -657 -24 -38
-60 -106 -81 -150 -35 -75 -38 -78 -48 -55 -5 14 -24 59 -41 100 -114 275
-325 507 -580 635 -58 29 -164 71 -202 79 -13 3 -52 12 -88 20 -36 8 -101 18
-145 21 -94 8 -165 11 -168 9z"/>
</g>
</svg>
